# xmcd
#
# Track frame offsets:
#   150
#   16816
#   33313
#   44455
#   53479
#   67519
#   82771
#   90374
#   95818
#   113605
#   132577
#   145864
#   160747
#   171380
#   185113
#
# Disc length: 2624 seconds
#
# Revision: 0
# Processed by: cddbd v1.5.2PL0 Copyright (c) Steve Scherf et al.
# Submitted via: GXTranscoder 2.0.1939
#
DISCID=b80a3e0f
DTITLE=Jack London - Der Ruf der Wildnis
DYEAR=1900
DGENRE=Blues
TTITLE0=Ich habe einen Schlitten mit ...
TTITLE1=Fast niemand setzte auf Buck
TTITLE2=Der Ruf ertönt
TTITLE3=Es wurde Sommer
TTITLE4=Im nächsten Frühling
TTITLE5=Oft lag er träge vor dem Zelt
TTITLE6=Das Land wurde eben
TTITLE7=John Thornton
TTITLE8=Buck fing an, die Nächte im Wald zu verbringen
TTITLE9=Als der Herbst kam
TTITLE10=Das große Haupt des Elches
TTITLE11=Als Buck wie ein gleitender Schatten
TTITLE12=Den ganzen Tag
TTITLE13=Auf seinen Jagdzügen
TTITLE14=Und damit endet die Geschichte von Buck
EXTD=
EXTT0=
EXTT1=
EXTT2=
EXTT3=
EXTT4=
EXTT5=
EXTT6=
EXTT7=
EXTT8=
EXTT9=
EXTT10=
EXTT11=
EXTT12=
EXTT13=
EXTT14=
PLAYORDER=
